<svg xmlns="http://www.w3.org/2000/svg" width="128" height="128" viewBox="0 0 33.866702 33.866734"><path class="daypath" d="M14.354 31.796C7.312 30.57 1.957 24.406 1.957 16.99c0-8.3 6.706-15.028 14.976-15.028m0 0c8.271 0 14.976 6.729 14.976 15.028 0 7.418-5.355 13.58-12.396 14.806m0 0c-1.196.195-1.428.245-2.567.959-1.14.713-1.753.683-2.594.576m0 0C6.496 32.335.487 25.273.487 17.04.487 7.925 7.85.487 16.933.487c9.083 0 16.446 7.389 16.446 16.503 0 8.234-6.008 15.059-13.865 16.3m0 0c-1.133.135-1.596-.183-2.569-.536-.97-.352-1.354-.776-2.59-.958" fill="none" stroke="#000" stroke-width=".975"/></svg>